<svg height="512" width="512" xml:space="preserve" xmlns:xlink="http://www.w3.org/1999/xlink" xmlns="http://www.w3.org/2000/svg"><defs><linearGradient id="a"><stop style="stop-color:#aaf0f6;stop-opacity:1" offset="0"/><stop style="stop-color:#41fa6f;stop-opacity:1" offset="1"/></linearGradient><linearGradient xlink:href="#a" id="c" x1="149.992" y1="230.117" x2="353.624" y2="41.685" gradientUnits="userSpaceOnUse"/></defs><linearGradient gradientUnits="userSpaceOnUse" id="b" x1="135.103" x2="376.897" y1="471" y2="229.206"><stop offset="0" style="stop-color:#aaf0f6"/><stop offset="1" style="stop-color:#41fa6f"/></linearGradient><path d="M371.994 461.68H140.007c-18.966 0-34.34-15.375-34.34-34.34V272.867c0-18.966 15.374-34.34 34.34-34.34h231.987c18.965 0 34.339 15.375 34.339 34.34V427.34c0 18.965-15.374 34.34-34.339 34.34z" fill="url(#b)"/><path d="M377.521 224.297h-40v-53.116c0-44.587-36.274-80.861-80.86-80.861-44.587 0-80.861 36.274-80.861 80.861v53.116h-40v-53.116c0-66.643 54.218-120.861 120.861-120.861s120.86 54.218 120.86 120.861v53.116z" fill="#30303b" style="fill:url(#c);fill-opacity:1"/><path d="M291 327.844c0-19.33-15.67-35-35-35s-35 15.67-35 35c0 10.8 4.895 20.453 12.582 26.873l-11.732 41.986h68.01l-11.677-41.788c7.824-6.419 12.817-16.161 12.817-27.071z" fill="#222429"/></svg>